<svg width="287" height="277" viewBox="0 0 287 277" fill="none" xmlns="http://www.w3.org/2000/svg">
<g clip-path="url(#clip0_54_1540)">
<path d="M212.943 75.0339C212.943 87.5462 212.98 100.059 212.898 112.571C212.888 114.168 213.374 115.102 214.754 115.714C218.404 117.331 221.976 119.13 225.533 120.916C229.286 122.799 233.092 124.591 236.813 126.553C241.264 128.9 245.861 130.972 250.378 133.192C254.992 135.459 259.578 137.776 264.191 140.042C267.784 141.806 271.408 143.501 274.998 145.267C278.287 146.886 281.632 148.421 284.789 150.272C286.339 151.18 286.995 152.884 286.99 154.854C286.95 175.804 286.966 196.756 286.968 217.706C286.968 223.64 286.856 229.578 286.993 235.509C287.126 241.192 285.438 241.37 281.588 243.28C276.483 245.812 271.244 248.073 266.14 250.625C261.486 252.951 256.687 254.986 251.975 257.195C248.346 258.895 244.762 260.69 241.137 262.399C236.304 264.676 231.44 266.884 226.614 269.172C221.783 271.465 216.976 273.81 212.17 276.156C209.848 277.288 207.604 277.278 205.253 276.132C199.435 273.292 193.56 270.573 187.731 267.753C183.029 265.48 178.372 263.114 173.679 260.824C169.072 258.575 164.442 256.379 159.829 254.144C155.92 252.249 152.018 250.34 148.12 248.424C145.964 247.365 143.763 246.354 141.562 245.466C140.641 245.096 139.039 246.287 137.797 246.875C131.808 249.712 125.825 252.562 119.861 255.449C115.052 257.776 110.285 260.192 105.472 262.516C100.782 264.781 96.0449 266.954 91.3547 269.218C87.5432 271.057 83.792 273.028 79.9638 274.834C77.9618 275.779 76.1105 277.079 73.6448 276.93C71.8805 276.823 70.5565 275.859 69.1437 275.186C63.2533 272.378 57.5737 269.114 51.6297 266.435C44.909 263.406 38.4109 259.934 31.727 256.834C24.8858 253.661 18.222 250.111 11.4578 246.77C8.93356 245.523 6.35743 244.379 3.78632 243.23C1.18676 242.075 -0.0117543 240.212 -3.70079e-05 237.396C0.11881 209.153 0.230961 180.909 0.329721 152.666C0.341438 149.19 1.10306 148.193 4.3521 146.742C7.89574 145.16 11.3088 143.287 14.829 141.65C19.9361 139.274 24.9695 136.739 30.0364 134.286C35.5971 131.596 41.1628 128.907 46.7017 126.165C51.4322 123.825 56.1091 121.377 60.9583 119.276C63.2901 118.266 65.5348 117.053 67.8263 115.949C68.9345 115.414 68.9596 114.452 68.9663 113.41C69.1152 91.7449 69.2793 70.0812 69.4383 48.4159C69.4601 45.4135 69.527 42.4077 69.4668 39.407C69.4182 36.996 70.3623 35.0725 72.4061 33.9869C76.5775 31.7685 80.8694 29.7781 85.1027 27.6737C89.7745 25.3532 94.4279 22.9958 99.1031 20.682C103.783 18.3666 108.494 16.1097 113.169 13.7808C116.766 11.9898 120.315 10.0982 123.91 8.30376C127.439 6.54453 131.006 4.86405 134.543 3.12492C136.059 2.37935 137.559 1.59356 139.046 0.787662C141.001 -0.271227 142.876 -0.239394 144.899 0.750802C149.641 3.07131 154.459 5.23433 159.226 7.50625C162.84 9.22862 166.411 11.0415 170.018 12.7739C173.875 14.6269 177.763 16.4163 181.621 18.2644C185.182 19.9683 188.72 21.7192 192.274 23.4398C196.189 25.3348 200.1 27.2364 204.058 29.0443C206.333 30.083 208.596 31.1922 210.839 32.3131C212.794 33.2899 213.524 35.0608 213.516 37.2808C213.469 49.8652 213.494 62.4495 213.494 75.0322C213.31 75.0322 213.127 75.0322 212.943 75.0322V75.0339ZM8.95867 194.923C8.95867 208.005 8.96369 221.089 8.94863 234.17C8.94863 235.194 8.91682 236.075 10.0835 236.627C12.4856 237.763 14.7972 239.091 17.1926 240.244C22.7097 242.901 28.2822 245.446 33.7826 248.139C39.6061 250.989 45.3559 253.988 51.1694 256.86C58.2784 260.373 65.4343 263.793 72.5333 267.329C73.8373 267.98 74.8818 267.938 76.1322 267.266C78.8004 265.833 81.5222 264.498 84.249 263.178C88.8639 260.943 93.5106 258.776 98.1206 256.533C102.869 254.222 107.568 251.813 112.329 249.528C117.032 247.269 121.801 245.148 126.51 242.901C130.824 240.844 135.097 238.701 139.384 236.59C140.695 235.945 141.943 235.995 143.276 236.645C147.127 238.525 151.033 240.294 154.887 242.167C159.641 244.476 164.323 246.943 169.116 249.168C175.856 252.297 182.542 255.548 189.231 258.775C195.135 261.623 201.114 264.347 206.885 267.477C207.955 268.057 209.174 268.286 210.165 267.665C212.701 266.073 215.535 265.135 218.169 263.766C221.852 261.851 225.665 260.19 229.418 258.413C233.119 256.658 236.81 254.886 240.511 253.137C244.393 251.3 248.284 249.481 252.169 247.653C255.611 246.034 259.053 244.416 262.492 242.792C266.624 240.842 270.708 238.783 274.899 236.972C278.035 235.616 278.096 235.757 278.096 232.262C278.096 221.682 278.096 211.101 278.096 200.521C278.096 186.437 278.102 172.353 278.088 158.271C278.088 157.466 278.466 156.434 277.405 156.004C275.318 155.158 273.359 154.067 271.352 153.062C263.664 149.213 255.859 145.601 248.137 141.819C241.441 138.542 234.82 135.116 228.127 131.832C221.5 128.581 214.84 125.398 208.164 122.248C205.483 120.983 204.274 119.016 204.371 116.029C204.502 112.03 204.425 108.024 204.447 104.019C204.562 83.0024 204.673 61.9854 204.823 40.9685C204.833 39.536 204.589 38.7753 203.004 38.2006C200.297 37.2222 197.786 35.7042 195.18 34.4409C191.328 32.5744 187.462 30.7365 183.605 28.8801C178.913 26.6199 174.226 24.3479 169.534 22.0911C165.924 20.3553 162.308 18.6296 158.692 16.9039C153.744 14.5415 148.758 12.2528 143.867 9.77817C142.569 9.12139 141.682 9.06107 140.366 9.75136C135.633 12.2361 130.795 14.5231 126.008 16.9072C122.603 18.6028 119.215 20.3335 115.824 22.0559C112.245 23.8738 108.688 25.7369 105.089 27.5146C100.474 29.7949 95.819 31.9914 91.199 34.2616C87.6721 35.9957 84.2339 37.9292 80.635 39.4958C78.7368 40.3218 77.9317 41.3069 77.925 43.4364C77.843 68.2416 77.6572 93.0484 77.555 117.854C77.5467 119.733 76.7951 121.094 75.2852 121.871C70.9097 124.125 66.4655 126.243 62.0296 128.377C57.2841 130.659 52.5051 132.869 47.7663 135.163C44.0235 136.974 40.3309 138.891 36.5947 140.713C31.8375 143.036 27.0669 145.326 22.2879 147.601C18.5384 149.387 14.7805 151.153 11.0058 152.882C9.5914 153.531 8.9051 154.363 8.91682 156.099C9.00554 169.039 8.96537 181.978 8.95867 194.918V194.923Z" fill="white"/>
<path d="M83.9996 110.783C83.6196 107.822 85.7187 106.78 87.6604 105.802C92.4444 103.391 97.2903 101.109 102.121 98.79C108.139 95.9015 114.155 93.008 120.196 90.1681C121.554 89.5297 122.201 88.7724 122.153 87.1188C122.012 82.4057 122.057 77.6843 122.143 72.9679C122.168 71.5772 121.602 71.0176 120.405 70.4614C116.39 68.5966 112.466 66.5324 108.479 64.6073C102.985 61.9534 97.4109 59.4603 91.9841 56.6774C90.1328 55.7274 88.0655 55.1527 86.4518 53.6884C83.951 51.4181 84.6306 47.4825 87.7424 46.0835C91.4099 44.4348 95.0272 42.6722 98.6362 40.8962C102.24 39.1236 105.795 37.2572 109.389 35.4661C114.177 33.0802 118.979 30.7262 123.778 28.3638C128.499 26.0383 133.328 23.9272 137.874 21.2599C140.817 19.5325 143.527 20.4071 146.267 21.8145C151.197 24.3494 156.252 26.6281 161.243 29.0307C164.968 30.8234 168.707 32.6011 172.415 34.4374C176.01 36.2184 179.656 37.8989 183.27 39.643C187.144 41.5128 191.049 43.329 194.85 45.3396C196.027 45.9612 197.276 46.4353 198.457 47.0351C200.346 47.9935 201.338 49.4562 201.154 51.3042C200.982 53.0333 199.974 54.387 198.016 55.1778C194.31 56.674 190.796 58.646 187.18 60.3734C181.221 63.2184 175.24 66.0181 169.278 68.8546C167.815 69.5499 166.429 70.4362 164.921 71.0025C163.121 71.6778 162.859 72.9126 162.885 74.6282C162.957 79.2022 162.906 83.7779 162.788 88.3519C162.752 89.7576 163.15 90.5652 164.467 91.1633C168.043 92.7868 171.551 94.5578 175.097 96.25C178.843 98.0377 182.606 99.7869 186.348 101.58C189.189 102.94 191.953 104.477 194.852 105.695C198.837 107.37 199.589 111.76 197.048 114.045C195.943 115.039 194.445 115.617 193.079 116.287C188.334 118.617 183.565 120.898 178.813 123.213C173.059 126.018 167.301 128.818 161.568 131.664C157.028 133.918 152.574 136.354 147.981 138.488C145.172 139.793 142.373 142.243 139.044 140.651C136.768 139.564 134.479 138.453 132.223 137.3C126.071 134.159 119.846 131.17 113.586 128.248C108.11 125.693 102.757 122.878 97.3389 120.202C93.5693 118.341 89.7494 116.582 86.0166 114.65C84.4934 113.862 83.5811 112.519 84.0013 110.783H83.9996ZM99.2187 50.1984C100.407 50.9892 101.105 51.656 101.937 51.971C104.778 53.0467 107.402 54.5529 110.107 55.8983C114.694 58.1803 119.305 60.4187 123.907 62.6638C128.887 65.0915 133.805 67.6684 138.88 69.8884C140.46 70.5787 141.776 72.5641 143.862 71.5772C149.461 68.9267 155.036 66.2225 160.59 63.4764C164.194 61.6937 167.813 59.9177 171.459 58.2506C176.188 56.0876 180.763 53.5962 185.587 51.6426C185.928 51.5036 186.288 51.3343 186.315 50.9423C186.345 50.4916 185.927 50.4899 185.602 50.3408C182.999 49.1496 180.403 47.9399 177.828 46.6883C173.128 44.4013 168.458 42.0473 163.749 39.7804C156.776 36.4228 149.772 33.1288 142.799 29.7729C141.886 29.3339 141.26 29.3641 140.288 29.8784C136.614 31.8237 132.809 33.5192 129.076 35.3555C125.658 37.036 122.273 38.7835 118.865 40.4874C115.146 42.3472 111.421 44.1936 107.695 46.0366C104.995 47.3719 102.289 48.6938 99.2187 50.2001V50.1984ZM130.775 101.581C130.638 101.581 130.5 101.581 130.363 101.581C130.363 109.36 130.375 117.14 130.35 124.919C130.346 126.122 130.333 127.04 131.863 127.497C133.388 127.953 134.781 128.891 136.19 129.69C137.683 130.538 138.088 130.212 138.097 128.466C138.18 113.05 138.282 97.6323 138.565 82.2181C138.607 79.921 137.769 78.8169 135.892 78.0344C134.856 77.6022 133.868 77.0509 132.834 76.6153C131.46 76.0373 130.706 76.1127 130.731 78.0294C130.83 85.8789 130.772 93.7318 130.772 101.583L130.775 101.581ZM147.014 104.26C146.885 104.26 146.757 104.26 146.628 104.26C146.628 110.974 146.672 117.689 146.613 124.403C146.572 129.231 146.511 129.23 150.827 127.357C151.344 127.132 151.88 126.943 152.39 126.703C153.523 126.172 154.024 125.349 154.019 124.014C154.002 119.8 154.168 115.585 154.181 111.369C154.218 100.295 154.213 89.2198 154.225 78.145C154.225 77.2101 154.292 75.8915 152.87 76.7159C151.577 77.4665 150.159 77.882 148.867 78.6225C147.482 79.415 146.943 80.3131 146.967 81.9667C147.072 89.3957 147.012 96.828 147.012 104.259L147.014 104.26ZM97.5498 110.635C99.4028 111.606 101.085 112.54 102.814 113.38C108.609 116.191 114.47 118.875 120.198 121.816C121.81 122.643 121.969 122.335 121.972 120.809C121.987 114.174 122.056 107.541 122.091 100.906C122.101 98.8872 121.766 98.7247 119.923 99.7115C118.119 100.678 116.319 101.657 114.476 102.546C108.917 105.23 103.338 107.873 97.5498 110.635ZM162.606 99.8908C162.606 106.517 162.599 112.586 162.616 118.654C162.618 119.407 162.157 120.479 162.939 120.821C163.598 121.109 164.517 120.666 165.298 120.273C169.126 118.344 173.021 116.548 176.831 114.586C179.452 113.234 182.244 112.167 184.777 110.388C177.405 106.898 170.264 103.516 162.606 99.8891V99.8908Z" fill="white"/>
<path d="M133.602 189.679C133.602 199.758 133.492 209.839 133.647 219.917C133.728 225.151 131.846 225.929 128.432 227.723C124.642 229.714 120.752 231.516 116.89 233.371C114.105 234.71 111.319 236.057 108.489 237.293C105.566 238.572 101.959 236.126 101.957 232.905C101.945 215.392 101.949 197.877 101.947 180.363C101.947 179.505 101.887 178.644 101.94 177.789C102.038 176.218 101.681 175.688 100.036 176.526C92.5231 180.348 84.9621 184.077 77.4245 187.851C75.3254 188.901 73.2515 188.965 71.1306 187.903C66.5391 185.602 61.9426 183.313 57.326 181.063C56.022 180.427 54.5088 179.063 53.3723 179.607C52.5018 180.025 53.1078 182.112 53.1061 183.453C53.086 200.323 53.0944 217.195 53.0927 234.065C53.0927 238.488 49.8638 240.304 45.9368 238.222C40.0815 235.115 34.1174 232.225 28.0713 229.502C26.7924 228.926 25.5504 228.231 24.315 227.572C22.5156 226.614 21.3271 225.088 21.3305 222.774C21.3623 202.544 21.3238 182.313 21.3539 162.084C21.3573 159.939 22.4537 158.481 24.5142 157.542C29.1175 155.442 33.6303 153.145 38.1816 150.932C43.9348 148.134 49.6914 145.341 55.4445 142.543C56.7586 141.905 57.8851 142.444 59.0869 142.987C64.0283 145.214 68.7587 147.871 73.7202 150.064C75.0643 150.657 75.9983 150.168 76.8688 149.757C81.7649 147.455 86.564 144.949 91.4317 142.585C93.6412 141.512 95.901 140.569 98.062 139.363C99.3626 138.637 101.129 138.79 102.612 139.524C108.43 142.395 114.225 145.312 120.054 148.161C123.391 149.791 126.753 151.379 130.149 152.88C132.389 153.871 133.626 155.472 133.629 157.94C133.641 168.521 133.634 179.1 133.634 189.68H133.597L133.602 189.679ZM119.103 157.166C112.94 154.219 107.009 151.393 101.088 148.546C100.201 148.119 99.3861 148.399 98.6479 148.782C91.7581 152.364 84.5252 155.243 77.7543 159.066C76.3298 159.87 74.8316 160.201 73.2598 159.437C69.2023 157.466 65.1615 155.461 61.0789 153.544C58.8995 152.522 56.9377 150.696 54.1573 152.743C52.2189 154.171 49.7232 154.824 47.5153 155.903C43.9248 157.657 40.3677 159.475 36.5797 161.375C37.0886 161.729 37.3915 162.037 37.7581 162.178C41.7085 163.692 45.3827 165.783 49.1942 167.591C52.8567 169.328 56.4991 171.104 60.0946 172.984C63.8274 174.936 67.7711 176.488 71.4704 178.497C73.4624 179.579 75.071 179.465 76.9424 178.441C79.5889 176.994 82.3173 175.693 85.0257 174.36C89.5134 172.147 94.0145 169.96 98.5073 167.755C102.233 165.927 106.018 164.202 109.662 162.219C112.678 160.578 116.025 159.547 119.105 157.168L119.103 157.166ZM110.484 199.016H110.462C110.462 207.514 110.462 216.013 110.462 224.511C110.462 226.679 110.737 226.741 112.759 225.793C115.502 224.508 118.1 222.933 120.954 221.854C125.112 220.282 125.085 220.212 125.084 215.735C125.08 202.95 125.077 190.166 125.074 177.381C125.074 173.81 125.012 170.237 125.099 166.668C125.142 164.857 124.67 164.434 122.981 165.286C119.59 166.993 116.154 168.611 112.704 170.195C110.948 171.001 110.4 172.198 110.43 174.159C110.556 182.442 110.484 190.729 110.484 199.014V199.016ZM44.4872 200.772C44.3935 200.772 44.2997 200.772 44.2043 200.772C44.2043 192.621 44.216 184.471 44.1826 176.32C44.1792 175.637 44.5893 174.812 43.518 174.318C39.822 172.616 36.1629 170.833 32.5105 169.037C30.4214 168.01 30.3511 168.003 30.3478 170.401C30.3243 186.559 30.3478 202.717 30.2557 218.875C30.2457 220.577 31.2818 221.122 32.3749 221.66C35.7796 223.335 39.3048 224.774 42.6476 226.557C44.6295 227.614 44.5073 226.666 44.5006 225.222C44.4688 217.071 44.4855 208.921 44.4855 200.77L44.4872 200.772Z" fill="white"/>
<path d="M175.478 190.235C175.478 202.172 175.498 214.11 175.448 226.048C175.443 227.251 175.661 228.011 176.817 228.566C180.446 230.305 184.018 232.16 187.629 233.939C191.171 235.685 194.731 237.392 198.283 239.116C201.368 240.614 204.437 242.149 207.543 243.6C209.582 244.551 212.096 242.918 212.103 240.688C212.123 235.112 212.125 229.536 212.126 223.96C212.126 218.548 212.937 217.588 217.945 215.509C221.708 213.947 225.262 211.883 228.993 210.235C232.027 208.893 234.654 206.483 238.234 206.507C240.526 206.522 242.812 208.537 242.829 210.841C242.883 218.418 242.923 225.997 242.724 233.57C242.663 235.832 241.609 237.704 239.152 238.843C232.197 242.065 225.394 245.617 218.512 248.998C216.06 250.203 213.457 251.124 211.097 252.48C208.968 253.703 207.009 253.141 205.188 252.27C200.433 249.998 195.816 247.438 191.087 245.108C186.564 242.878 181.877 240.964 177.438 238.587C173.233 236.335 168.915 234.338 164.653 232.215C159.926 229.859 155.298 227.291 150.494 225.108C147.931 223.943 147.064 222.104 147.06 219.59C147.045 207.294 147.059 195 147.065 182.704C147.07 175.27 147.116 167.834 147.069 160.4C147.054 158.049 147.82 156.334 150.02 155.286C158.073 151.458 166.119 147.611 174.144 143.721C178.9 141.415 183.597 138.989 188.344 136.664C192.503 134.625 196.71 132.681 200.866 130.637C202.923 129.627 204.475 131.001 206.03 131.763C211.184 134.29 216.291 136.907 221.482 139.366C227.777 142.35 233.984 145.525 240.178 148.72C241.612 149.461 242.493 150.867 242.498 152.565C242.521 162.715 242.685 172.872 242.417 183.015C242.312 187.03 238.785 188.283 235.141 186.354C231.217 184.278 227.238 182.303 223.265 180.323C220.31 178.85 217.244 177.583 214.391 175.938C213.079 175.181 212.466 173.686 212.481 171.949C212.552 163.515 212.48 155.079 212.545 146.643C212.557 145.093 212.269 144.26 210.602 143.717C208.546 143.051 206.521 142.042 204.756 140.794C202.51 139.204 200.652 140.318 198.782 141.206C191.533 144.652 184.335 148.209 177.1 151.686C175.88 152.272 175.612 153.137 175.617 154.415C175.662 166.353 175.644 178.29 175.644 190.23H175.48L175.478 190.235ZM166.434 157.005C163.068 158.661 159.672 160.338 156.267 161.997C155.433 162.402 155.544 163.138 155.544 163.84C155.544 181.489 155.554 199.138 155.522 216.787C155.52 217.892 155.905 218.451 156.889 218.885C159.466 220.018 162.025 221.196 164.536 222.464C166.606 223.509 166.568 223.578 166.578 221.134C166.657 200.484 166.737 179.834 166.811 159.183C166.812 158.555 166.985 157.898 166.434 157.007V157.005ZM221.418 149.568C221.418 156.072 221.43 162.493 221.403 168.911C221.4 169.719 221.85 170.03 222.448 170.327C225.729 171.962 229.008 173.601 232.28 175.251C232.712 175.469 233.094 176.022 233.582 175.812C234.257 175.523 233.921 174.802 233.922 174.283C233.947 168.425 233.911 162.566 233.957 156.709C233.968 155.467 233.668 154.851 232.354 154.435C230.69 153.907 229.219 152.802 227.585 152.142C225.595 151.336 223.941 149.717 221.418 149.568ZM233.937 224.903C233.937 222.904 233.902 220.904 233.951 218.905C233.983 217.595 233.598 217.469 232.464 218.049C228.963 219.838 225.417 221.542 221.869 223.236C221.085 223.61 220.611 224.039 220.618 224.982C220.65 228.909 220.645 232.837 220.628 236.764C220.623 237.845 220.77 238.138 221.944 237.558C225.541 235.782 229.214 234.159 232.874 232.515C233.715 232.138 233.988 231.593 233.957 230.689C233.894 228.764 233.937 226.833 233.937 224.905V224.903Z" fill="white"/>
<path d="M247.667 224.025C247.667 222.454 247.75 220.877 247.648 219.312C247.476 216.69 248.309 214.98 250.946 213.88C255.363 212.039 259.613 209.791 263.937 207.723C266.801 206.354 269.258 207.762 269.317 210.885C269.397 215.097 269.309 219.314 269.406 223.526C269.479 226.691 266.65 226.837 264.876 227.819C261.192 229.856 257.238 231.396 253.489 233.322C250.318 234.951 247.707 233.572 247.663 230.027C247.638 228.026 247.658 226.026 247.658 224.025H247.665H247.667Z" fill="white"/>
</g>
<defs>
<clipPath id="clip0_54_1540">
<rect width="287" height="277" fill="white"/>
</clipPath>
</defs>
</svg>
