<svg width="64" height="66" viewBox="0 0 64 66" fill="none" xmlns="http://www.w3.org/2000/svg">
<g id="Capa 1">
<path id="Vector" d="M50.2865 17.7258C51.368 16.7383 52.8257 16.5032 53.9151 17.0675L54.1267 16.8559C54.785 15.2414 55.9763 13.4546 57.6221 11.8087C59.2679 10.1629 61.0548 8.97169 62.6692 8.31337C62.6692 8.31337 62.9827 7.99988 63.3824 7.60019C63.7743 7.20833 63.5391 6.33056 62.8495 5.64873L58.8133 1.61259C58.1237 0.922916 57.2537 0.687801 56.8697 1.07182L56.1722 1.77717C55.5139 3.39162 54.3226 5.19417 52.669 6.84782C51.0153 8.50146 49.2206 9.69271 47.5983 10.351L47.4573 10.4921C48.1469 11.5971 47.9353 13.1724 46.893 14.3166L36.0542 25.0928C35.584 25.0614 34.8316 24.6852 33.8206 23.1178C32.018 20.3278 27.8095 18.7368 24.3455 24.7479C20.8814 30.759 23.7577 31.7543 13.8828 32.8986C10.3953 33.0945 7.09584 34.4268 4.58011 36.9426C-1.39181 42.9145 -0.717815 53.2909 6.10052 60.1014C12.9189 66.9197 23.2874 67.6016 29.2672 61.6218C29.3769 61.5121 29.4788 61.4024 29.5807 61.2926C29.5807 61.2926 29.6199 61.2535 29.6826 61.1829C30.1606 60.6578 30.5917 60.1092 30.9757 59.5293C32.5118 57.3427 34.7062 53.4241 34.2203 49.3253C33.4758 43.1339 39.2753 43.4161 41.6813 41.8643C44.0873 40.3047 44.9337 38.9645 45.0042 37.4049C45.0042 37.4049 42.1358 39.4191 39.5182 36.8015C37.4179 34.7011 38.3505 31.1117 39.2596 29.2151L50.2943 17.7101L50.2865 17.7258Z" fill="white"/>
</g>
</svg>
