<svg width="117" height="117" viewBox="0 0 117 117" fill="none" xmlns="http://www.w3.org/2000/svg">
<g id="heroicons-solid/book-open">
<g id="Subtract">
<path d="M54.8438 22.0977C47.4559 17.3686 38.6707 14.625 29.25 14.625C23.7012 14.625 18.3669 15.5774 13.4066 17.3306C11.9456 17.847 10.9688 19.2282 10.9688 20.7778V90.2466C10.9688 91.4335 11.5449 92.5465 12.5139 93.2318C13.483 93.9171 14.7244 94.0893 15.8434 93.6938C20.0319 92.2134 24.5428 91.4062 29.25 91.4062C38.9757 91.4062 47.8883 94.8541 54.8438 100.599V22.0977Z" fill="white"/>
<path d="M62.1562 100.599C69.1117 94.8541 78.0243 91.4062 87.75 91.4062C92.4572 91.4062 96.9681 92.2134 101.157 93.6938C102.276 94.0893 103.517 93.9171 104.486 93.2318C105.455 92.5465 106.031 91.4335 106.031 90.2466V20.7778C106.031 19.2282 105.054 17.847 103.593 17.3306C98.6331 15.5774 93.2989 14.625 87.75 14.625C78.3292 14.625 69.5441 17.3686 62.1562 22.0977V100.599Z" fill="white"/>
</g>
</g>
</svg>
