<svg width="87" height="87" viewBox="0 0 87 87" fill="none" xmlns="http://www.w3.org/2000/svg">
<path d="M17.9109 1.05538e-06C16.3228 -0.000831463 14.7736 0.490893 13.4767 1.40741C12.1798 2.32392 11.1991 3.62011 10.6698 5.11732H10.2348C7.52036 5.11732 4.9171 6.19561 2.9977 8.11498C1.07831 10.0343 0 12.6376 0 15.352V39.8742C0.000983425 42.6545 0.64924 45.3964 1.89344 47.8828L5.1174 54.3357C6.17989 56.4607 7.81313 58.2479 9.83414 59.497C11.8551 60.7461 14.184 61.4078 16.5599 61.4079H25.8838C31.4106 61.4079 36.0674 57.8769 38.7694 53.6909C43.2522 46.7814 49.7056 41.3764 57.2944 38.1752C57.8543 37.9365 58.3107 37.506 58.5817 36.9611C58.8528 36.4162 58.9207 35.7925 58.7734 35.2021C58.0211 32.188 56.6241 30.0182 54.7204 28.6365C53.031 27.4447 51.0048 26.8243 48.9377 26.8659C47.904 26.8659 46.9215 26.999 46.0566 27.173V15.352C46.0566 12.6376 44.9783 10.0343 43.0589 8.11498C41.1395 6.19561 38.5363 5.11732 35.8218 5.11732H35.3868C34.8575 3.62011 33.8768 2.32392 32.5799 1.40741C31.283 0.490893 29.7338 -0.000831463 28.1457 1.05538e-06H17.9109ZM17.9109 5.11732H20.4696V28.1453C20.4696 28.8239 20.7392 29.4747 21.219 29.9545C21.6989 30.4344 22.3497 30.7039 23.0283 30.7039C23.7069 30.7039 24.3577 30.4344 24.8376 29.9545C25.3174 29.4747 25.587 28.8239 25.587 28.1453V5.11732H28.1457C28.8243 5.11732 29.4751 5.3869 29.955 5.86674C30.4348 6.34658 30.7044 6.99738 30.7044 7.67598V28.1453C30.7044 28.8239 30.974 29.4747 31.4538 29.9545C31.9337 30.4344 32.5845 30.7039 33.2631 30.7039C33.9417 30.7039 34.5925 30.4344 35.0724 29.9545C35.5522 29.4747 35.8218 28.8239 35.8218 28.1453V10.2346C37.179 10.2346 38.4807 10.7738 39.4404 11.7335C40.4001 12.6932 40.9392 13.9948 40.9392 15.352V30.7039C40.9392 31.1393 41.0503 31.5674 41.262 31.9479C41.4737 32.3283 41.7789 32.6484 42.1488 32.878C42.5188 33.1075 42.9412 33.2389 43.376 33.2596C43.8109 33.2803 44.2439 33.1898 44.634 32.9965L44.6903 32.9709L44.9359 32.8634C45.1611 32.7662 45.4988 32.6332 45.9184 32.5052C46.7679 32.2289 47.8528 31.9833 48.9377 31.9833C50.0072 31.9833 50.9489 32.2187 51.7062 32.7713C52.2966 33.2197 52.7719 33.8021 53.093 34.4703C45.4982 38.1463 39.0571 43.835 34.4708 50.9173C32.3983 54.131 29.1692 56.2905 25.8838 56.2905H16.5599C15.1336 56.2905 13.7355 55.8931 12.5225 55.1428C11.3095 54.3926 10.3294 53.3192 9.69236 52.0432L6.4684 45.5953C5.58008 43.819 5.11754 41.8602 5.1174 39.8742V15.352C5.1174 13.9948 5.65655 12.6932 6.61625 11.7335C7.57595 10.7738 8.87758 10.2346 10.2348 10.2346V28.1453C10.2348 28.8239 10.5044 29.4747 10.9842 29.9545C11.4641 30.4344 12.1149 30.7039 12.7935 30.7039C13.4721 30.7039 14.1229 30.4344 14.6028 29.9545C15.0826 29.4747 15.3522 28.8239 15.3522 28.1453V7.67598C15.3522 6.99738 15.6218 6.34658 16.1016 5.86674C16.5815 5.3869 17.2323 5.11732 17.9109 5.11732ZM62.7445 30.97C67.8056 31.6771 72.5788 33.7486 76.5521 36.9622C80.5254 40.1757 83.549 44.4103 85.2987 49.2116C87.0483 54.013 87.4579 59.2 86.4837 64.2165C85.5094 69.233 83.1879 73.8896 79.7683 77.687C76.3486 81.4845 71.9598 84.2794 67.0724 85.7722C62.185 87.2649 56.9835 87.3992 52.0256 86.1605C47.0677 84.9218 42.5406 82.357 38.9296 78.741C35.3186 75.125 32.7601 70.5943 31.5283 65.6348C33.2324 65.0821 34.8188 64.2991 36.2619 63.3575C37.3968 68.9485 40.5658 73.9195 45.1553 77.3082C49.7449 80.6969 55.4286 82.2622 61.1059 81.7011C66.7833 81.14 72.0506 78.4924 75.888 74.2708C79.7254 70.0493 81.86 64.5541 81.8784 58.8492C81.8784 53.6266 80.104 48.5591 76.846 44.4773C73.588 40.3956 69.0397 37.5419 63.9471 36.3842C64.0087 35.5699 63.9396 34.751 63.7424 33.9585C63.4881 32.9379 63.1544 31.9387 62.7445 30.97ZM49.8947 58.8492C50.3987 58.8492 50.8978 58.7499 51.3634 58.557C51.8291 58.3642 52.2522 58.0815 52.6086 57.7251C52.965 57.3687 53.2477 56.9456 53.4406 56.4799C53.6334 56.0143 53.7327 55.5152 53.7327 55.0112C53.7327 54.5072 53.6334 54.0081 53.4406 53.5425C53.2477 53.0768 52.965 52.6537 52.6086 52.2973C52.2522 51.9409 51.8291 51.6582 51.3634 51.4654C50.8978 51.2725 50.3987 51.1732 49.8947 51.1732C48.8768 51.1732 47.9005 51.5776 47.1808 52.2973C46.461 53.0171 46.0566 53.9933 46.0566 55.0112C46.0566 56.0291 46.461 57.0053 47.1808 57.7251C47.9005 58.4448 48.8768 58.8492 49.8947 58.8492ZM71.6436 55.0112C71.6436 56.0291 71.2393 57.0053 70.5195 57.7251C69.7997 58.4448 68.8235 58.8492 67.8056 58.8492C66.7877 58.8492 65.8114 58.4448 65.0917 57.7251C64.3719 57.0053 63.9675 56.0291 63.9675 55.0112C63.9675 53.9933 64.3719 53.0171 65.0917 52.2973C65.8114 51.5776 66.7877 51.1732 67.8056 51.1732C68.8235 51.1732 69.7997 51.5776 70.5195 52.2973C71.2393 53.0171 71.6436 53.9933 71.6436 55.0112ZM50.9028 67.9376C50.7538 67.6345 50.5464 67.3639 50.2924 67.1414C50.0384 66.9189 49.7428 66.7489 49.4228 66.6412C49.1028 66.5334 48.7646 66.4901 48.4277 66.5137C48.0909 66.5373 47.762 66.6273 47.4601 66.7786C47.1582 66.9299 46.8892 67.1394 46.6687 67.3951C46.4482 67.6509 46.2805 67.9477 46.1752 68.2686C46.07 68.5894 46.0292 68.9279 46.0554 69.2646C46.0816 69.6013 46.1742 69.9294 46.3278 70.2301C47.5918 72.7632 51.7011 76.7598 58.8501 76.7598C66.0042 76.7598 70.1084 72.7632 71.3724 70.2301C71.526 69.9294 71.6186 69.6013 71.6448 69.2646C71.671 68.9279 71.6303 68.5894 71.525 68.2686C71.4198 67.9477 71.2521 67.6509 71.0315 67.3951C70.811 67.1394 70.542 66.9299 70.2401 66.7786C69.9382 66.6273 69.6094 66.5373 69.2725 66.5137C68.9357 66.4901 68.5975 66.5334 68.2774 66.6412C67.9574 66.7489 67.6619 66.9189 67.4079 67.1414C67.1538 67.3639 66.9464 67.6345 66.7974 67.9376C66.3574 68.8177 63.9829 71.6425 58.8501 71.6425C53.7225 71.6425 51.3429 68.8177 50.9028 67.9376Z" fill="white"/>
</svg>
