<svg width="68" height="65" viewBox="0 0 68 65" fill="none" xmlns="http://www.w3.org/2000/svg">
<g id="band" clip-path="url(#clip0_57_1448)">
<g id="Capa 1">
<path id="Vector" d="M15.6732 59.3344L21.2953 62.3982V64.2231L20.3583 63.7208V64.2231L14.1338 60.8244L8.18538 64.2231V63.6957L7.25673 64.2231V62.3982L13.0545 59.0749V39.0847L0.563721 38.189L0.739412 35.6693L1.77683 35.7446V15.5034L12.3016 16.2986V4.7465C6.29461 4.69628 1.54257 4.10193 1.54257 3.37365C1.54257 2.64536 6.29461 2.05939 12.3016 2.00079V0.62793H13.8075V2.00079C19.8061 2.04264 24.5582 2.64536 24.5582 3.37365C24.5582 4.10193 19.8061 4.68791 13.8075 4.73813V16.4242L25.8382 17.3366V24.1256C20.4503 27.1308 16.7441 32.7896 16.4847 39.3358L15.6732 39.2772V59.3344ZM56.7933 39.0763L67.2763 38.1974L67.0922 35.6777L66.0632 35.753V15.5034L50.1589 16.8092L49.8912 16.985L49.7908 16.8344L43.8256 17.3282V24.293C49.0629 27.3401 52.6437 32.9152 52.8947 39.3526L55.1034 39.1935V58.4135L49.3055 61.7285V63.5618L55.6974 59.8952L62.4071 63.5618V61.7285L56.785 58.6647V39.068L56.7933 39.0763ZM42.6376 54.8809H42.9974V63.9719H40.521V55.8771C38.6637 56.6054 36.6307 56.9988 34.514 56.9988C32.5396 56.9988 30.6404 56.6472 28.8835 56.0194V63.9719H26.3987V54.8893C21.3037 52.0431 17.8484 46.5852 17.8484 40.332C17.8484 31.1238 25.3111 23.6568 34.514 23.6568C43.7169 23.6568 51.1796 31.1154 51.1796 40.332C51.1796 46.5852 47.7327 52.0348 42.6376 54.8893V54.8809ZM41.1484 40.3236C41.1484 36.6655 38.1784 33.6853 34.514 33.6853C30.8496 33.6853 27.8796 36.6655 27.8796 40.3236C27.8796 43.9818 30.8579 46.9619 34.514 46.9619C38.1701 46.9619 41.1484 43.9818 41.1484 40.3236ZM67.2763 13.7956L67.0336 12.2972L53.5723 14.4904L65.511 6.37049L64.6576 5.11483L50.0167 15.0681L48.3936 15.3359L48.6362 16.8344L49.6737 16.6669L49.7824 16.8427L50.1589 16.8176L50.5939 16.5163L67.2679 13.7956H67.2763Z" fill="white"/>
</g>
</g>
<defs>
<clipPath id="clip0_57_1448">
<rect width="66.7125" height="63.5951" fill="white" transform="translate(0.563721 0.62793)"/>
</clipPath>
</defs>
</svg>
