<svg width="64" height="66" viewBox="0 0 64 66" fill="none" xmlns="http://www.w3.org/2000/svg">
<g id="Capa 1">
<path id="Vector" d="M50.3364 17.6686C51.4185 16.6806 52.877 16.4454 53.9669 17.01L54.1787 16.7983C54.8373 15.183 56.0292 13.3952 57.6759 11.7485C59.3225 10.1018 61.1103 8.90997 62.7256 8.25131C62.7256 8.25131 63.0393 7.93766 63.4392 7.53776C63.8312 7.14569 63.596 6.26747 62.906 5.58529L58.8677 1.54705C58.1777 0.857017 57.3073 0.621779 56.9231 1.006L56.2252 1.71171C55.5666 3.32701 54.3747 5.13049 52.7202 6.785C51.0657 8.4395 49.27 9.63137 47.6469 10.29L47.5058 10.4312C48.1958 11.5368 47.9841 13.1129 46.9412 14.2577L36.0968 25.0394C35.6263 25.008 34.8735 24.6317 33.862 23.0634C32.0585 20.2719 27.8478 18.6802 24.3819 24.6944C20.9161 30.7086 23.7938 31.7045 13.9139 32.8493C10.4245 33.0453 7.12336 34.3783 4.60632 36.8954C-1.36871 42.8704 -0.694359 53.2522 6.12752 60.0662C12.9494 66.8881 23.3234 67.5703 29.3062 61.5874C29.416 61.4777 29.518 61.3679 29.6199 61.2581C29.6199 61.2581 29.6591 61.2189 29.7218 61.1483C30.2001 60.623 30.6314 60.0741 31.0156 59.4938C32.5525 57.3061 34.7481 53.3855 34.2619 49.2845C33.517 43.09 39.3195 43.3722 41.7268 41.8197C44.134 40.2593 44.9809 38.9184 45.0515 37.358C45.0515 37.358 42.1816 39.3732 39.5626 36.7542C37.4611 34.6528 38.3942 31.0615 39.3038 29.1639L50.3443 17.653L50.3364 17.6686Z" fill="white"/>
</g>
</svg>
