<svg width="161" height="72" viewBox="0 0 161 72" fill="none" xmlns="http://www.w3.org/2000/svg">
<path d="M59.4492 50.0001V12.4958H69.8613V50.0001H59.4492ZM102.514 12.4958H112.637V50.0001H102.199V31.0906L92.8359 44.4924L83.4467 31.0906V50.0001H73.0347V12.4958H83.132L92.8359 26.3173L102.514 12.4958ZM147.781 44.5187C144.127 48.1729 139.712 50.0001 134.536 50.0001C129.344 50.0001 124.92 48.1729 121.266 44.5187C117.611 40.8644 115.784 36.4408 115.784 31.2479C115.784 26.0725 117.611 21.6577 121.266 18.0034C124.92 14.3491 129.344 12.522 134.536 12.522C139.712 12.522 144.127 14.3491 147.781 18.0034L140.411 25.3731C138.785 23.7471 136.827 22.934 134.536 22.934C132.229 22.934 130.262 23.7471 128.635 25.3731C127.009 26.9992 126.196 28.9575 126.196 31.2479C126.196 33.5559 127.009 35.5229 128.635 37.1489C130.262 38.775 132.229 39.588 134.536 39.588C136.827 39.588 138.785 38.775 140.411 37.1489L147.781 44.5187Z" fill="white"/>
<path d="M59.4324 68.3904V61.4777H61.3516V68.3904H59.4324ZM65.9681 61.4777H67.8872V68.3904H66.1614L63.8556 65.0984V68.3904H61.9365V61.4777H63.6671L65.9681 64.7697V61.4777ZM68.4721 61.4777H74.6162V63.3968H72.5037V68.3904H70.5846V63.3968H68.4721V61.4777ZM76.2114 61.4777H78.4158L81.0455 68.3904H78.991L78.6236 67.4284H75.9456L75.5685 68.3904H73.5092L76.2114 61.4777ZM77.3039 63.9528L76.6948 65.5093H77.8937L77.3039 63.9528ZM85.662 61.4777H87.5811V68.3904H85.8554L83.5495 65.0984V68.3904H81.6304V61.4777H83.361L85.662 64.7697V61.4777ZM88.166 68.3904V61.4777H90.0851V68.3904H88.166ZM93.3723 61.4777H95.5766L98.2063 68.3904H96.1519L95.7845 67.4284H93.1064L92.7294 68.3904H90.6701L93.3723 61.4777ZM94.4648 63.9528L93.8557 65.5093H95.0545L94.4648 63.9528ZM106.68 61.4777H108.546V68.3904H106.622V64.9051L104.897 67.3753L103.166 64.9051V68.3904H101.247V61.4777H103.108L104.897 64.0253L106.68 61.4777ZM114.338 67.4961C113.741 68.0923 113.023 68.3904 112.182 68.3904C111.337 68.3904 110.617 68.0923 110.021 67.4961C109.425 66.8999 109.126 66.1796 109.126 65.3353V61.4777H111.046V65.3353C111.046 65.6479 111.157 65.9154 111.379 66.1377C111.601 66.3601 111.869 66.4713 112.182 66.4713C112.494 66.4713 112.76 66.3601 112.979 66.1377C113.202 65.9154 113.313 65.6479 113.313 65.3353V61.4777H115.232V65.3353C115.232 66.1796 114.934 66.8999 114.338 67.4961ZM120.042 65.896H118.026C117.417 65.896 116.896 65.6801 116.465 65.2483C116.033 64.8164 115.817 64.296 115.817 63.6869C115.817 63.0778 116.033 62.5573 116.465 62.1255C116.896 61.6936 117.417 61.4777 118.026 61.4777H121.864V63.3968H118.026C117.945 63.3968 117.878 63.4258 117.823 63.4839C117.765 63.5386 117.736 63.6063 117.736 63.6869C117.736 63.7642 117.765 63.8319 117.823 63.8899C117.878 63.9447 117.945 63.9721 118.026 63.9721H120.042C120.651 63.9721 121.171 64.188 121.603 64.6199C122.035 65.0517 122.251 65.5722 122.251 66.1813C122.251 66.7903 122.035 67.3108 121.603 67.7426C121.171 68.1745 120.651 68.3904 120.042 68.3904H116.199V66.4713H120.042C120.122 66.4713 120.19 66.4423 120.245 66.3843C120.303 66.3295 120.332 66.2618 120.332 66.1813C120.332 66.1039 120.303 66.0362 120.245 65.9782C120.19 65.9234 120.122 65.896 120.042 65.896ZM122.836 68.3904V61.4777H124.755V68.3904H122.836ZM131.237 67.3801C130.564 68.0536 129.75 68.3904 128.796 68.3904C127.839 68.3904 127.024 68.0536 126.35 67.3801C125.677 66.7066 125.34 65.8912 125.34 64.9341C125.34 63.9801 125.677 63.1664 126.35 62.4929C127.024 61.8193 127.839 61.4826 128.796 61.4826C129.75 61.4826 130.564 61.8193 131.237 62.4929L129.879 63.8512C129.579 63.5515 129.218 63.4017 128.796 63.4017C128.371 63.4017 128.008 63.5515 127.709 63.8512C127.409 64.151 127.259 64.5119 127.259 64.9341C127.259 65.3595 127.409 65.722 127.709 66.0217C128.008 66.3214 128.371 66.4713 128.796 66.4713C129.218 66.4713 129.579 66.3214 129.879 66.0217L131.237 67.3801ZM140.171 67.3801C139.497 68.0536 138.683 68.3904 137.73 68.3904C136.772 68.3904 135.957 68.0536 135.283 67.3801C134.61 66.7066 134.273 65.8912 134.273 64.9341C134.273 63.9801 134.61 63.1664 135.283 62.4929C135.957 61.8193 136.772 61.4826 137.73 61.4826C138.683 61.4826 139.497 61.8193 140.171 62.4929L138.812 63.8512C138.513 63.5515 138.152 63.4017 137.73 63.4017C137.304 63.4017 136.942 63.5515 136.642 63.8512C136.342 64.151 136.192 64.5119 136.192 64.9341C136.192 65.3595 136.342 65.722 136.642 66.0217C136.942 66.3214 137.304 66.4713 137.73 66.4713C138.152 66.4713 138.513 66.3214 138.812 66.0217L140.171 67.3801ZM140.751 61.4777H142.67V66.4713H146.702V68.3904H140.751V61.4777ZM152.498 67.4961C151.901 68.0923 151.183 68.3904 150.342 68.3904C149.497 68.3904 148.777 68.0923 148.181 67.4961C147.585 66.8999 147.286 66.1796 147.286 65.3353V61.4777H149.206V65.3353C149.206 65.6479 149.317 65.9154 149.539 66.1377C149.761 66.3601 150.029 66.4713 150.342 66.4713C150.654 66.4713 150.92 66.3601 151.139 66.1377C151.362 65.9154 151.473 65.6479 151.473 65.3353V61.4777H153.392V65.3353C153.392 66.1796 153.094 66.8999 152.498 67.4961ZM155.886 66.5293H157.689C157.786 66.5293 157.868 66.4906 157.936 66.4133C158.007 66.3392 158.042 66.2489 158.042 66.1426C158.042 66.0362 158.007 65.946 157.936 65.8719C157.868 65.7978 157.786 65.7607 157.689 65.7607H155.886V66.5293ZM155.886 63.3388V64.1074H157.689C157.786 64.1074 157.868 64.0704 157.936 63.9963C158.007 63.9221 158.042 63.8319 158.042 63.7256C158.042 63.6192 158.007 63.529 157.936 63.4548C157.868 63.3775 157.786 63.3388 157.689 63.3388H155.886ZM159.541 64.9341C159.799 65.3111 159.927 65.7269 159.927 66.1813C159.927 66.7903 159.713 67.3108 159.285 67.7426C158.853 68.1745 158.332 68.3904 157.723 68.3904H153.977V61.4777H157.723C158.332 61.4777 158.853 61.6936 159.285 62.1255C159.713 62.5573 159.927 63.0778 159.927 63.6869C159.927 64.1413 159.799 64.557 159.541 64.9341Z" fill="white"/>
<path fill-rule="evenodd" clip-rule="evenodd" d="M47.307 9.81559C47.8314 10.2126 48.1396 10.8336 48.1396 11.4928V21.9506C48.1404 21.9823 48.1404 22.0139 48.1396 22.0455V50.8564C48.1396 54.6083 45.6617 57.9057 42.0675 58.9364L38.3839 59.9928C33.8328 61.298 29.3024 57.868 29.3024 53.1171C29.3024 49.9244 31.411 47.1185 34.4695 46.2414L40.9175 44.3922C42.7146 43.8769 43.9536 42.2282 43.9536 40.3522V24.7821L18.8373 31.985V59.2598C18.8373 63.0117 16.3593 66.3091 12.7651 67.3398L9.08146 68.3962C4.53036 69.7014 0 66.2713 0 61.5205C0 58.3278 2.10862 55.5219 5.16708 54.6448L11.6151 52.7956C13.4122 52.2802 14.6512 50.6315 14.6512 48.7556V30.4468C14.6505 30.415 14.6505 30.3834 14.6512 30.3518V19.8961C14.6512 18.9582 15.2707 18.1338 16.1692 17.8761L45.4716 9.47279C46.1031 9.29168 46.7827 9.41861 47.307 9.81559Z" fill="white"/>
</svg>
