<svg width="100" height="75" viewBox="0 0 100 75" fill="none" xmlns="http://www.w3.org/2000/svg">
<g id="Frame" clip-path="url(#clip0_54_1482)">
<path id="Vector" d="M14.2857 0H0V75H14.2857V0Z" fill="white" stroke="black"/>
<path id="Vector_2" d="M28.5714 0H14.2857V75H28.5714V0Z" fill="white" stroke="black"/>
<path id="Vector_3" d="M42.8572 0H28.5714V75H42.8572V0Z" fill="white" stroke="black"/>
<path id="Vector_4" d="M57.1429 0H42.8571V75H57.1429V0Z" fill="white" stroke="black"/>
<path id="Vector_5" d="M71.4286 0H57.1429V75H71.4286V0Z" fill="white" stroke="black"/>
<path id="Vector_6" d="M85.7143 0H71.4286V75H85.7143V0Z" fill="white" stroke="black"/>
<path id="Vector_7" d="M100 0H85.7143V75H100V0Z" fill="white" stroke="black"/>
<path id="Vector_8" d="M16.9772 0H8.90268V50H16.9772V0Z" fill="black" stroke="black"/>
<path id="Vector_9" d="M33.9544 0H25.8799V50H33.9544V0Z" fill="black" stroke="black"/>
<path id="Vector_10" d="M59.1615 0H51.0869V50H59.1615V0Z" fill="black" stroke="black"/>
<path id="Vector_11" d="M75.3106 0H67.236V50H75.3106V0Z" fill="black" stroke="black"/>
<path id="Vector_12" d="M91.7702 0H83.6956V50H91.7702V0Z" fill="black" stroke="black"/>
</g>
<defs>
<clipPath id="clip0_54_1482">
<rect width="100" height="75" fill="white"/>
</clipPath>
</defs>
</svg>
