<svg width="53" height="59" viewBox="0 0 53 59" fill="none" xmlns="http://www.w3.org/2000/svg">
<g id="Capa 1">
<path id="Vector" d="M50.776 19.6299C46.366 18.8399 42.196 16.7599 38.876 13.4499C35.556 10.1299 33.476 5.95988 32.696 1.55988C37.156 -1.23012 43.616 -0.240116 48.106 4.22988C52.576 8.70988 53.566 15.1699 50.776 19.6299ZM47.696 22.7099C43.466 21.5299 39.496 19.3299 36.246 16.0799C32.996 12.8199 30.796 8.85988 29.626 4.62988C26.836 9.08988 27.826 15.5599 32.296 20.0399C36.776 24.5099 43.236 25.5099 47.706 22.7199L47.696 22.7099ZM29.976 42.5399C24.416 42.5399 20.436 46.0199 16.916 49.0899C13.036 52.4799 9.67603 55.4199 4.72603 53.8899C3.74603 53.1699 3.71603 52.5799 3.70603 52.3799C3.63603 51.0399 5.25603 49.2399 6.05603 48.5799C6.15603 48.4999 6.21603 48.3899 6.28603 48.2899C7.59603 48.7499 9.09603 48.4799 10.136 47.4399L35.476 26.5799C33.376 25.6899 31.386 24.3999 29.646 22.6599C27.906 20.9199 26.616 18.9199 25.726 16.8299L4.89603 42.1699C3.96603 43.0999 3.69603 44.3799 3.95603 45.5699C3.87603 45.6199 3.78603 45.6399 3.71603 45.6999C3.31603 46.0299 -0.163974 48.9899 0.00602621 52.5499C0.0660262 53.7999 0.616026 55.6099 2.87603 57.1199L3.32603 57.3399C4.77603 57.8199 6.12603 58.0399 7.39603 58.0399C12.356 58.0399 16.046 54.8099 19.396 51.8899C22.706 48.9999 25.836 46.2699 29.996 46.2699C39.596 46.2699 47.036 56.5599 47.106 56.6599C47.696 57.5099 48.866 57.6999 49.696 57.0999C50.536 56.5099 50.736 55.3499 50.136 54.5099C49.786 54.0199 41.526 42.5499 29.986 42.5499L29.976 42.5399Z" fill="white"/>
</g>
</svg>
